<?xml version="1.0" encoding="UTF-8"?>
<svg width="84px" height="84px" viewBox="0 0 84 84" version="1.1" xmlns="http://www.w3.org/2000/svg" xmlns:xlink="http://www.w3.org/1999/xlink">
    <!-- Generator: Sketch 64 (93537) - https://sketch.com -->
    <title>linkedin copy</title>
    <desc>Created with Sketch.</desc>
    <g id="Page-1" stroke="none" stroke-width="1" fill="none" fill-rule="evenodd">
        <g id="Desktop-HD" transform="translate(-194.000000, -646.000000)">
            <g id="linkedin-copy" transform="translate(194.000000, 646.000000)">
                <g id="linkedinn">
                    <g fill-rule="nonzero">
                        <path d="M42,0 C18.8075867,0 0,18.8075867 0,42 C0,65.1924133 18.8075867,84 42,84 C65.1924133,84 84,65.1924133 84,42 C84,18.8075867 65.1924133,0 42,0 Z" id="Path" fill="#FFFFFF"></path>
                        <path d="M30.3791852,61.6976959 L20.5790092,61.6976959 L20.5790092,32.2136629 L30.3791852,32.2136629 L30.3791852,61.6976959 Z M25.4794042,28.1876148 L25.4155474,28.1876148 C22.1269225,28.1876148 20,25.9237686 20,23.0944214 C20,20.2012174 22.1920074,18 25.5444889,18 C28.8969708,18 30.9600365,20.2012174 31.0238933,23.0944214 C31.0238933,25.9237686 28.8969708,28.1876148 25.4794042,28.1876148 Z M65.716553,61.6976959 L55.917605,61.6976959 L55.917605,45.9244536 C55.917605,41.9604203 54.4986335,39.2569446 50.9527393,39.2569446 C48.2455796,39.2569446 46.6331955,41.0805473 45.9246306,42.8409071 C45.6655194,43.4708791 45.6022766,44.3513659 45.6022766,45.2324669 L45.6022766,61.6976959 L35.8027146,61.6976959 C35.8027146,61.6976959 35.9310424,34.9797674 35.8027146,32.2136629 L45.6022766,32.2136629 L45.6022766,36.3883009 C46.9045869,34.3792679 49.2347458,31.5216764 54.4341625,31.5216764 C60.8818567,31.5216764 65.716553,35.7356107 65.716553,44.7916094 L65.716553,61.6976959 Z" id="Shape" fill="#F76A6A"></path>
                    </g>
                </g>
            </g>
        </g>
    </g>
</svg>