<?xml version="1.0" encoding="UTF-8"?>
<svg width="84px" height="84px" viewBox="0 0 84 84" version="1.1" xmlns="http://www.w3.org/2000/svg" xmlns:xlink="http://www.w3.org/1999/xlink">
    <!-- Generator: Sketch 64 (93537) - https://sketch.com -->
    <title>Medium icon</title>
    <desc>Created with Sketch.</desc>
    <g id="Page-1" stroke="none" stroke-width="1" fill="none" fill-rule="evenodd">
        <g id="Desktop-HD" transform="translate(-36.000000, -912.000000)">
            <g id="Medium-icon" transform="translate(36.000000, 912.000000)">
                <g id="medium-color">
                    <rect id="Rectangle" fill="#FFFFFF" x="0" y="0" width="84" height="84" rx="42"></rect>
                    <path d="M59.647875,29.281875 L63,26.07675 L63,25.375875 L51.389625,25.375875 L43.115625,45.969 L33.705,25.375875 L21.53025,25.375875 L21.53025,26.079375 L25.44675,30.79125 C25.827375,31.13775 26.0295,31.649625 25.977,32.1615 L25.977,50.680875 C26.09775,51.347625 25.879875,52.03275 25.412625,52.518375 L21,57.862875 L21,58.555875 L33.502875,58.555875 L33.502875,57.852375 L29.092875,52.51575 C28.615125,52.030125 28.389375,51.3555 28.4865,50.67825 L28.4865,34.6605 L39.461625,58.56375 L40.737375,58.56375 L50.17425,34.6605 L50.17425,53.70225 C50.17425,54.20625 50.17425,54.308625 49.8435,54.63675 L46.44675,57.920625 L46.44675,58.624125 L62.918625,58.624125 L62.918625,57.920625 L59.64525,54.7155 C59.359125,54.50025 59.2095,54.135375 59.269875,53.781 L59.269875,30.216375 C59.21475,29.862 59.36175,29.497125 59.647875,29.281875 L59.647875,29.281875 Z" id="Path" fill="#F76A6A" fill-rule="nonzero"></path>
                </g>
            </g>
        </g>
    </g>
</svg>