<?xml version="1.0" encoding="UTF-8"?>
<svg width="84px" height="84px" viewBox="0 0 84 84" version="1.1" xmlns="http://www.w3.org/2000/svg" xmlns:xlink="http://www.w3.org/1999/xlink">
    <!-- Generator: Sketch 64 (93537) - https://sketch.com -->
    <title>phone</title>
    <desc>Created with Sketch.</desc>
    <g id="Page-1" stroke="none" stroke-width="1" fill="none" fill-rule="evenodd">
        <g id="Desktop-HD" transform="translate(-194.000000, -646.000000)">
            <g id="phone" transform="translate(194.000000, 646.000000)">
                <g>
                    <rect id="Rectangle" fill="#FFFFFF" x="0" y="0" width="84" height="84" rx="42"></rect>
                    <g id="phone-color" transform="translate(19.181102, 18.519685)" fill="#F76A6A" fill-rule="nonzero">
                        <path d="M43.6425679,34.4435517 C45.598463,35.6784429 45.8990703,38.3926053 44.2586536,40.019347 L43.51581,40.7563491 L30.3227237,30.9611375 L32.2060341,29.0935269 C33.4077554,27.9018236 35.2818598,27.6978226 36.7158523,28.6026604 L43.6425679,34.4435517 Z" id="Path"></path>
                        <path d="M17.529559,9.42060262 C18.4407818,10.8542605 18.2353412,12.7283903 17.0352285,13.9304818 L15.1544392,15.8134635 L6.19496507,2.62055324 L6.93716795,1.87734552 C8.57538891,0.236906657 11.3087039,0.537872089 12.5523092,2.49450181 L17.529559,9.42060262 Z" id="Path"></path>
                        <path d="M43.5277809,40.8936053 L41.742095,42.6767992 C28.3851926,56.0177043 -9.32441745,18.1669861 3.39868321,5.45947706 L6.08959795,2.77143174 L15.0562468,15.9412634 L13.1884603,17.8078731 C12.6703779,18.3246282 12.5153778,19.1025885 12.7952981,19.7783995 C12.6930263,19.6246454 15.5063841,28.7488008 26.5004199,33.291085 C27.1770413,33.57067 27.9559344,33.416209 28.4740168,32.898747 L30.3418032,31.0331976 L43.5277809,40.8936053 Z" id="Path"></path>
                        <path d="M44.2589175,33.7258165 L37.3861358,27.887904 C37.3543108,27.861058 37.3207178,27.8363317 37.2857103,27.8140778 C35.4826482,26.6674775 33.1675575,26.9214534 31.6558708,28.4311792 L27.908656,32.1740557 C27.6491056,32.4336834 27.2619017,32.5103353 26.9224352,32.3704543 C22.6911269,30.6219417 19.2151317,27.9896356 16.5909851,24.5473618 C14.5899009,21.9224737 13.8685347,19.8366218 13.7734134,19.5427304 C13.7620978,19.4798546 13.7440636,19.417332 13.7186036,19.3562223 C13.5782201,19.0171169 13.6549537,18.6310312 13.9152113,18.3717568 L17.6620726,14.6278206 C19.1737592,13.1177415 19.4276518,10.8051129 18.2798308,9.00396828 C18.2706369,8.98948567 18.2610894,8.97535628 18.2511884,8.96122688 L13.2879055,2.07138096 C11.7263597,-0.348631092 8.32497638,-0.714229195 6.28358051,1.32464251 L5.53321819,2.07420684 C5.5328646,2.07491326 5.53215734,2.07561978 5.53145016,2.07597299 L2.85249387,4.75208029 C-0.342027177,7.94355727 -0.864664064,12.7390737 1.34151436,18.6211406 C3.23121109,23.6596827 7.0141407,29.1740321 11.993336,34.1479321 C17.0902837,39.2394595 22.7597275,43.0883065 27.9571008,44.9855309 C33.1014323,46.8629742 38.5735612,47.094343 42.4466616,43.2250083 L44.9732116,40.7014985 C47.0054134,38.6711045 46.6507417,35.2955922 44.2589175,33.7258165 Z M36.264482,29.3086146 L43.1312523,35.1415818 C43.1627237,35.1684276 43.1963167,35.1931541 43.2313242,35.2154079 C44.6981022,36.1483012 44.9201699,38.1970634 43.6927864,39.4227883 L43.5053726,39.610356 L31.7934256,30.8508379 L32.9359424,29.7098894 C33.82881,28.8176181 35.1895048,28.6561897 36.264482,29.3086146 L36.264482,29.3086146 Z M11.7755116,3.0650306 C11.7847056,3.07951329 11.794253,3.0939959 11.8041542,3.10777208 L16.7653153,9.99514534 C17.4392977,11.0728649 17.2833552,12.4487146 16.382001,13.3491104 L15.2748453,14.4554419 L7.35113188,2.81564683 L7.56365211,2.60335261 C8.79598612,1.37232915 10.8451614,1.60511094 11.7755116,3.0650306 Z M28.5780414,43.2868244 C23.6232454,41.478262 18.187892,37.7784801 13.2734075,32.8692219 C8.4727857,28.0740587 4.83731191,22.7886055 3.03637155,17.9867308 C1.684517,14.3823223 0.777505024,9.38228283 4.13256538,6.03114369 L6.04807568,4.11731727 L13.9717891,15.7571124 L12.6354934,17.0926934 C11.87523,17.8507354 11.636189,18.9726093 12.0156135,19.9715575 C12.3013311,21.1428843 13.6160564,23.5741998 14.942451,25.365807 C16.8943832,28.002352 20.437211,31.6473825 26.2304187,34.0416085 C27.2484644,34.4623111 28.4093691,34.2312956 29.1887275,33.4531191 L30.5002705,32.1426179 L42.2122175,40.9021359 L41.16659,41.9462981 C37.5700135,45.5394031 32.3358647,44.6584354 28.5780414,43.2868244 Z" id="Shape"></path>
                    </g>
                </g>
            </g>
        </g>
    </g>
</svg>